<?xml version="1.0" encoding="UTF-8" standalone="no"?>
<!DOCTYPE svg PUBLIC "-//W3C//DTD SVG 1.1//EN"
 "http://www.w3.org/Graphics/SVG/1.1/DTD/svg11.dtd">
<!-- Generated by graphviz version 13.1.2 (20250808.2320)
 -->
<!-- Title: G Pages: 1 -->
<svg width="4184pt" height="1439pt"
 viewBox="0.00 0.00 4184.00 1439.00" xmlns="http://www.w3.org/2000/svg" xmlns:xlink="http://www.w3.org/1999/xlink">
<g id="graph0" class="graph" transform="scale(1 1) rotate(0) translate(4 1434.92)">
<title>G</title>
<polygon fill="white" stroke="none" points="-4,4 -4,-1434.92 4180,-1434.92 4180,4 -4,4"/>
<g id="clust1" class="cluster">
<title>cluster_root</title>
<polygon fill="#e3f2fd" stroke="#e3f2fd" points="8,-176.15 8,-1422.92 1436,-1422.92 1436,-176.15 8,-176.15"/>
<text xml:space="preserve" text-anchor="middle" x="722" y="-1405.62" font-family="Times,serif" font-size="14.00">File: root.scene.dry</text>
</g>
<g id="clust2" class="cluster">
<title>cluster_modes</title>
<polygon fill="none" stroke="#ce93d8" stroke-dasharray="5,2" points="16,-184.15 16,-855.23 1098,-855.23 1098,-184.15 16,-184.15"/>
<text xml:space="preserve" text-anchor="middle" x="557" y="-837.93" font-family="Times,serif" font-size="14.00">Difficulty / Modes</text>
</g>
<g id="clust3" class="cluster">
<title>cluster_modinfo</title>
<polygon fill="#e8f5e9" stroke="#e8f5e9" points="1676,-367.54 1676,-855.23 3322,-855.23 3322,-367.54 1676,-367.54"/>
<text xml:space="preserve" text-anchor="middle" x="2499" y="-837.93" font-family="Times,serif" font-size="14.00">File: modinfo.scene.dry</text>
</g>
<g id="clust4" class="cluster">
<title>cluster_credits</title>
<polygon fill="#fff3e0" stroke="#fff3e0" points="3330,-559.69 3330,-855.23 4168,-855.23 4168,-559.69 3330,-559.69"/>
<text xml:space="preserve" text-anchor="middle" x="3749" y="-837.93" font-family="Times,serif" font-size="14.00">File: credits.scene.dry</text>
</g>
<!-- post_event -->
<g id="node1" class="node">
<title>post_event</title>
<ellipse fill="#eeeeee" stroke="black" cx="1564" cy="-1154.57" rx="58.55" ry="19.2"/>
<text xml:space="preserve" text-anchor="middle" x="1564" y="-1151.45" font-family="Helvetica,sans-Serif" font-size="10.00">post_event</text>
</g>
<!-- game_over_achievements -->
<g id="node2" class="node">
<title>game_over_achievements</title>
<ellipse fill="#eeeeee" stroke="black" cx="1556" cy="-779.03" rx="111.58" ry="19.2"/>
<text xml:space="preserve" text-anchor="middle" x="1556" y="-775.91" font-family="Helvetica,sans-Serif" font-size="10.00">game_over_achievements</text>
</g>
<!-- main_scene -->
<g id="node3" class="node">
<title>main_scene</title>
<ellipse fill="#eeeeee" stroke="black" cx="819" cy="-19.2" rx="37.87" ry="19.2"/>
<text xml:space="preserve" text-anchor="middle" x="819" y="-16.07" font-family="Helvetica,sans-Serif" font-size="10.00">main</text>
</g>
<!-- main_easy -->
<g id="node4" class="node">
<title>main_easy</title>
<ellipse fill="#eeeeee" stroke="black" cx="1021" cy="-19.2" rx="77.64" ry="19.2"/>
<text xml:space="preserve" text-anchor="middle" x="1021" y="-16.07" font-family="Helvetica,sans-Serif" font-size="10.00">main.main_easy</text>
</g>
<!-- root_init -->
<g id="node5" class="node">
<title>root_init</title>
<ellipse fill="white" stroke="black" cx="1371" cy="-1346.72" rx="52.71" ry="19.2"/>
<text xml:space="preserve" text-anchor="middle" x="1371" y="-1343.59" font-family="Helvetica,sans-Serif" font-size="10.00">root (Init)</text>
</g>
<!-- root_init&#45;&gt;post_event -->
<g id="edge1" class="edge">
<title>root_init&#45;&gt;post_event</title>
<path fill="none" stroke="#444444" d="M1388.81,-1328.17C1423.71,-1293.79 1501.1,-1217.54 1540.28,-1178.94"/>
<polygon fill="#444444" stroke="#444444" points="1541.89,-1180.8 1545.15,-1174.14 1538.45,-1177.31 1541.89,-1180.8"/>
<text xml:space="preserve" text-anchor="middle" x="1488.12" y="-1247.92" font-family="Helvetica,sans-Serif" font-size="8.00">started=1</text>
</g>
<!-- start_menu -->
<g id="node6" class="node">
<title>start_menu</title>
<ellipse fill="white" stroke="black" cx="1360" cy="-1154.57" rx="59.61" ry="19.2"/>
<text xml:space="preserve" text-anchor="middle" x="1360" y="-1151.45" font-family="Helvetica,sans-Serif" font-size="10.00">start_menu</text>
</g>
<!-- root_init&#45;&gt;start_menu -->
<g id="edge2" class="edge">
<title>root_init&#45;&gt;start_menu</title>
<path fill="none" stroke="#444444" d="M1369.93,-1327.14C1367.97,-1293.35 1363.83,-1221.69 1361.56,-1182.53"/>
<polygon fill="#444444" stroke="#444444" points="1364.02,-1182.58 1361.17,-1175.74 1359.12,-1182.87 1364.02,-1182.58"/>
<text xml:space="preserve" text-anchor="middle" x="1386.12" y="-1247.92" font-family="Helvetica,sans-Serif" font-size="8.00">started=0</text>
</g>
<!-- start_menu_2 -->
<g id="node7" class="node">
<title>start_menu_2</title>
<ellipse fill="white" stroke="black" cx="1360" cy="-971.18" rx="67.56" ry="19.2"/>
<text xml:space="preserve" text-anchor="middle" x="1360" y="-968.05" font-family="Helvetica,sans-Serif" font-size="10.00">start_menu_2</text>
</g>
<!-- start_menu&#45;&gt;start_menu_2 -->
<g id="edge3" class="edge">
<title>start_menu&#45;&gt;start_menu_2</title>
<path fill="none" stroke="#444444" d="M1360,-1135.18C1360,-1103 1360,-1036.33 1360,-999"/>
<polygon fill="#444444" stroke="#444444" points="1362.45,-999.13 1360,-992.13 1357.55,-999.13 1362.45,-999.13"/>
</g>
<!-- start_menu_2&#45;&gt;game_over_achievements -->
<g id="edge7" class="edge">
<title>start_menu_2&#45;&gt;game_over_achievements</title>
<path fill="none" stroke="#444444" d="M1378.44,-952.29C1413.81,-917.98 1491.2,-842.89 1531.11,-804.18"/>
<polygon fill="#444444" stroke="#444444" points="1532.77,-805.98 1536.09,-799.34 1529.36,-802.46 1532.77,-805.98"/>
</g>
<!-- start_1 -->
<g id="node8" class="node">
<title>start_1</title>
<ellipse fill="white" stroke="black" cx="1314" cy="-779.03" rx="44.23" ry="19.2"/>
<text xml:space="preserve" text-anchor="middle" x="1314" y="-775.91" font-family="Helvetica,sans-Serif" font-size="10.00">start_1</text>
</g>
<!-- start_menu_2&#45;&gt;start_1 -->
<g id="edge4" class="edge">
<title>start_menu_2&#45;&gt;start_1</title>
<path fill="none" stroke="#444444" d="M1355.51,-951.6C1347.27,-917.57 1329.76,-845.18 1320.33,-806.19"/>
<polygon fill="#444444" stroke="#444444" points="1322.83,-806.1 1318.8,-799.88 1318.07,-807.26 1322.83,-806.1"/>
<text xml:space="preserve" text-anchor="middle" x="1346.75" y="-872.38" font-family="Helvetica,sans-Serif" font-size="8.00">Start</text>
</g>
<!-- modinfo_flavors -->
<g id="node22" class="node">
<title>modinfo_flavors</title>
<ellipse fill="white" stroke="black" cx="2083" cy="-779.03" rx="50.59" ry="19.2"/>
<text xml:space="preserve" text-anchor="middle" x="2083" y="-775.91" font-family="Helvetica,sans-Serif" font-size="10.00">@flavors</text>
</g>
<!-- start_menu_2&#45;&gt;modinfo_flavors -->
<g id="edge5" class="edge">
<title>start_menu_2&#45;&gt;modinfo_flavors</title>
<path fill="none" stroke="#444444" d="M1408.56,-957.41C1540.21,-922.78 1902.83,-827.42 2034.46,-792.8"/>
<polygon fill="#444444" stroke="#444444" points="2034.8,-795.24 2040.95,-791.09 2033.56,-790.5 2034.8,-795.24"/>
<text xml:space="preserve" text-anchor="middle" x="1739.12" y="-872.38" font-family="Helvetica,sans-Serif" font-size="8.00">Mod Info</text>
</g>
<!-- credits_menu -->
<g id="node38" class="node">
<title>credits_menu</title>
<ellipse fill="white" stroke="black" cx="3527" cy="-779.03" rx="50.59" ry="19.2"/>
<text xml:space="preserve" text-anchor="middle" x="3527" y="-775.91" font-family="Helvetica,sans-Serif" font-size="10.00">@credits</text>
</g>
<!-- start_menu_2&#45;&gt;credits_menu -->
<g id="edge6" class="edge">
<title>start_menu_2&#45;&gt;credits_menu</title>
<path fill="none" stroke="#444444" d="M1423.97,-964.56C1743.85,-936.5 3166.49,-811.67 3469.94,-785.04"/>
<polygon fill="#444444" stroke="#444444" points="3469.9,-787.5 3476.66,-784.45 3469.47,-782.62 3469.9,-787.5"/>
<text xml:space="preserve" text-anchor="middle" x="3003.75" y="-872.38" font-family="Helvetica,sans-Serif" font-size="8.00">Credits</text>
</g>
<!-- pls_player -->
<g id="node9" class="node">
<title>pls_player</title>
<ellipse fill="white" stroke="black" cx="1372" cy="-586.89" rx="55.9" ry="19.2"/>
<text xml:space="preserve" text-anchor="middle" x="1372" y="-583.76" font-family="Helvetica,sans-Serif" font-size="10.00">pls_player</text>
</g>
<!-- start_1&#45;&gt;pls_player -->
<g id="edge9" class="edge">
<title>start_1&#45;&gt;pls_player</title>
<path fill="none" stroke="#444444" d="M1319.56,-759.8C1329.88,-725.96 1352.04,-653.31 1363.99,-614.16"/>
<polygon fill="#444444" stroke="#444444" points="1366.23,-615.2 1365.93,-607.79 1361.54,-613.77 1366.23,-615.2"/>
<text xml:space="preserve" text-anchor="middle" x="1355.38" y="-680.23" font-family="Helvetica,sans-Serif" font-size="8.00">if new</text>
</g>
<!-- root_start -->
<g id="node10" class="node">
<title>root_start</title>
<ellipse fill="white" stroke="black" cx="1168" cy="-586.89" rx="61.73" ry="19.2"/>
<text xml:space="preserve" text-anchor="middle" x="1168" y="-583.76" font-family="Helvetica,sans-Serif" font-size="10.00">start (Logic)</text>
</g>
<!-- start_1&#45;&gt;root_start -->
<g id="edge8" class="edge">
<title>start_1&#45;&gt;root_start</title>
<path fill="none" stroke="#444444" d="M1300.53,-760.48C1274.37,-726.42 1216.65,-651.25 1186.76,-612.32"/>
<polygon fill="#444444" stroke="#444444" points="1189,-611.21 1182.79,-607.15 1185.11,-614.19 1189,-611.21"/>
<text xml:space="preserve" text-anchor="middle" x="1266.5" y="-680.23" font-family="Helvetica,sans-Serif" font-size="8.00">if completed</text>
</g>
<!-- modinfo_infotext -->
<g id="node23" class="node">
<title>modinfo_infotext</title>
<ellipse fill="white" stroke="black" cx="2224" cy="-586.89" rx="54.31" ry="19.2"/>
<text xml:space="preserve" text-anchor="middle" x="2224" y="-583.76" font-family="Helvetica,sans-Serif" font-size="10.00">@infotext</text>
</g>
<!-- pls_player&#45;&gt;modinfo_infotext -->
<g id="edge10" class="edge">
<title>pls_player&#45;&gt;modinfo_infotext</title>
<path fill="none" stroke="#444444" d="M1421,-596.56C1539.91,-620.03 1834,-678.08 1834,-678.08 1834,-678.08 2062.94,-624.55 2170,-599.51"/>
<polygon fill="#444444" stroke="#444444" points="2170.38,-601.94 2176.64,-597.96 2169.27,-597.17 2170.38,-601.94"/>
<text xml:space="preserve" text-anchor="middle" x="1834" y="-680.23" font-family="Helvetica,sans-Serif" font-size="8.00">Read Info</text>
</g>
<!-- mode_easy -->
<g id="node11" class="node">
<title>mode_easy</title>
<ellipse fill="white" stroke="black" cx="1033" cy="-394.74" rx="57.49" ry="19.2"/>
<text xml:space="preserve" text-anchor="middle" x="1033" y="-391.61" font-family="Helvetica,sans-Serif" font-size="10.00">1928_easy</text>
</g>
<!-- root_start&#45;&gt;mode_easy -->
<g id="edge50" class="edge">
<title>root_start&#45;&gt;mode_easy</title>
<path fill="none" stroke="#444444" d="M1155.06,-567.65C1130.76,-533.44 1078.31,-459.57 1050.75,-420.74"/>
<polygon fill="#444444" stroke="#444444" points="1052.83,-419.44 1046.78,-415.15 1048.84,-422.28 1052.83,-419.44"/>
<text xml:space="preserve" text-anchor="middle" x="1110.25" y="-488.09" font-family="Helvetica,sans-Serif" font-size="8.00">Easy</text>
</g>
<!-- mode_hard -->
<g id="node12" class="node">
<title>mode_hard</title>
<ellipse fill="white" stroke="black" cx="356" cy="-394.74" rx="56.43" ry="19.2"/>
<text xml:space="preserve" text-anchor="middle" x="356" y="-391.61" font-family="Helvetica,sans-Serif" font-size="10.00">1928_hard</text>
</g>
<!-- root_start&#45;&gt;mode_hard -->
<g id="edge52" class="edge">
<title>root_start&#45;&gt;mode_hard</title>
<path fill="none" stroke="#444444" d="M1119.64,-574.56C977.06,-541.17 559.05,-443.29 409.76,-408.33"/>
<polygon fill="#444444" stroke="#444444" points="410.43,-405.97 403.06,-406.76 409.31,-410.74 410.43,-405.97"/>
<text xml:space="preserve" text-anchor="middle" x="805.57" y="-488.09" font-family="Helvetica,sans-Serif" font-size="8.00">Hard</text>
</g>
<!-- mode_historical -->
<g id="node13" class="node">
<title>mode_historical</title>
<ellipse fill="white" stroke="black" cx="571" cy="-394.74" rx="72.87" ry="19.2"/>
<text xml:space="preserve" text-anchor="middle" x="571" y="-391.61" font-family="Helvetica,sans-Serif" font-size="10.00">1928_historical</text>
</g>
<!-- root_start&#45;&gt;mode_historical -->
<g id="edge53" class="edge">
<title>root_start&#45;&gt;mode_historical</title>
<path fill="none" stroke="#444444" d="M1126.02,-572.51C1019.91,-538.72 741.08,-449.91 623.98,-412.61"/>
<polygon fill="#444444" stroke="#444444" points="625.02,-410.38 617.61,-410.59 623.54,-415.04 625.02,-410.38"/>
<text xml:space="preserve" text-anchor="middle" x="893.06" y="-488.09" font-family="Helvetica,sans-Serif" font-size="8.00">Hist.</text>
</g>
<!-- mode_mod -->
<g id="node14" class="node">
<title>mode_mod</title>
<ellipse fill="white" stroke="black" cx="810" cy="-394.74" rx="79.76" ry="19.2"/>
<text xml:space="preserve" text-anchor="middle" x="810" y="-391.61" font-family="Helvetica,sans-Serif" font-size="10.00">1928_mod_mode</text>
</g>
<!-- root_start&#45;&gt;mode_mod -->
<g id="edge49" class="edge">
<title>root_start&#45;&gt;mode_mod</title>
<path fill="none" stroke="#444444" d="M1137.79,-569.84C1073.08,-535.47 921.18,-454.79 849.18,-416.55"/>
<polygon fill="#444444" stroke="#444444" points="850.72,-414.59 843.39,-413.47 848.42,-418.92 850.72,-414.59"/>
<text xml:space="preserve" text-anchor="middle" x="1006.62" y="-488.09" font-family="Helvetica,sans-Serif" font-size="8.00">Dynamic</text>
</g>
<!-- mode_main -->
<g id="node16" class="node">
<title>mode_main</title>
<ellipse fill="white" stroke="black" cx="920" cy="-211.34" rx="58.55" ry="19.2"/>
<text xml:space="preserve" text-anchor="middle" x="920" y="-208.22" font-family="Helvetica,sans-Serif" font-size="10.00">1928_main</text>
</g>
<!-- root_start&#45;&gt;mode_main -->
<g id="edge51" class="edge">
<title>root_start&#45;&gt;mode_main</title>
<path fill="none" stroke="#444444" d="M1177.71,-567.55C1201.72,-519.7 1262,-399.61 1262,-399.61 1262,-399.61 1046.78,-281.14 957.8,-232.15"/>
<polygon fill="#444444" stroke="#444444" points="958.99,-230.01 951.68,-228.78 956.63,-234.3 958.99,-230.01"/>
<text xml:space="preserve" text-anchor="middle" x="1276.62" y="-392.01" font-family="Helvetica,sans-Serif" font-size="8.00">Normal</text>
</g>
<!-- mode_challenge -->
<g id="node17" class="node">
<title>mode_challenge</title>
<ellipse fill="white" stroke="black" cx="997" cy="-779.03" rx="74.46" ry="19.2"/>
<text xml:space="preserve" text-anchor="middle" x="997" y="-775.91" font-family="Helvetica,sans-Serif" font-size="10.00">1928_challenge</text>
</g>
<!-- root_start&#45;&gt;mode_challenge -->
<g id="edge54" class="edge">
<title>root_start&#45;&gt;mode_challenge</title>
<path fill="none" stroke="#444444" d="M1151.83,-605.87C1120.83,-640.34 1053.04,-715.72 1018.36,-754.28"/>
<polygon fill="#444444" stroke="#444444" points="1016.96,-752.17 1014.1,-759.02 1020.6,-755.45 1016.96,-752.17"/>
<text xml:space="preserve" text-anchor="middle" x="996.62" y="-680.23" font-family="Helvetica,sans-Serif" font-size="8.00">Custom</text>
</g>
<!-- mode_easy&#45;&gt;mode_main -->
<g id="edge55" class="edge">
<title>mode_easy&#45;&gt;mode_main</title>
<path fill="none" stroke="#444444" d="M1011.48,-376.56C978.69,-350.39 920,-303.54 920,-303.54"/>
</g>
<!-- mode_hard&#45;&gt;mode_main -->
<g id="edge56" class="edge">
<title>mode_hard&#45;&gt;mode_main</title>
<path fill="none" stroke="#444444" d="M406.05,-385.74C544.08,-363.66 920,-303.54 920,-303.54"/>
</g>
<!-- mode_historical&#45;&gt;mode_main -->
<g id="edge57" class="edge">
<title>mode_historical&#45;&gt;mode_main</title>
<path fill="none" stroke="#444444" d="M621.75,-380.62C718.54,-355.61 920,-303.54 920,-303.54"/>
</g>
<!-- mode_mod&#45;&gt;mode_main -->
<g id="edge58" class="edge">
<title>mode_mod&#45;&gt;mode_main</title>
<path fill="none" stroke="#444444" d="M831.73,-375.92C863.79,-349.63 920,-303.54 920,-303.54"/>
</g>
<!-- mode_lite -->
<g id="node15" class="node">
<title>mode_lite</title>
<ellipse fill="white" stroke="black" cx="119" cy="-394.74" rx="94.61" ry="19.2"/>
<text xml:space="preserve" text-anchor="middle" x="119" y="-391.61" font-family="Helvetica,sans-Serif" font-size="10.00">1928_mod_mode_lite</text>
</g>
<!-- mode_lite&#45;&gt;mode_main -->
<g id="edge59" class="edge">
<title>mode_lite&#45;&gt;mode_main</title>
<path fill="none" stroke="#444444" d="M200.21,-384.59C403.85,-361.66 920,-303.54 920,-303.54"/>
<path fill="none" stroke="#444444" d="M920,-302.54C920,-302.54 920,-265.83 920,-239.25"/>
<polygon fill="#444444" stroke="#444444" points="922.45,-239.55 920,-232.55 917.55,-239.55 922.45,-239.55"/>
</g>
<!-- mode_main&#45;&gt;main_scene -->
<g id="edge69" class="edge">
<title>mode_main&#45;&gt;main_scene</title>
<path fill="none" stroke="#444444" d="M910.32,-192.11C892.17,-157.95 853.03,-84.26 832.38,-45.39"/>
<polygon fill="#444444" stroke="#444444" points="834.66,-44.47 829.22,-39.43 830.34,-46.77 834.66,-44.47"/>
<text xml:space="preserve" text-anchor="middle" x="887.5" y="-112.55" font-family="Helvetica,sans-Serif" font-size="8.00">diff &gt;= 0</text>
</g>
<!-- mode_main&#45;&gt;main_easy -->
<g id="edge70" class="edge">
<title>mode_main&#45;&gt;main_easy</title>
<path fill="none" stroke="#444444" d="M929.68,-192.11C947.74,-158.13 986.57,-85.01 1007.3,-45.98"/>
<polygon fill="#444444" stroke="#444444" points="1009.37,-47.32 1010.49,-39.99 1005.04,-45.02 1009.37,-47.32"/>
<text xml:space="preserve" text-anchor="middle" x="985.12" y="-112.55" font-family="Helvetica,sans-Serif" font-size="8.00">diff &lt; 0</text>
</g>
<!-- mode_challenge&#45;&gt;root_start -->
<g id="edge64" class="edge">
<title>mode_challenge&#45;&gt;root_start</title>
<path fill="none" stroke="#444444" d="M1013.09,-760.14C1044.02,-725.74 1111.81,-650.36 1146.55,-611.74"/>
<polygon fill="#444444" stroke="#444444" points="1147.96,-613.83 1150.82,-606.99 1144.32,-610.56 1147.96,-613.83"/>
<text xml:space="preserve" text-anchor="middle" x="1092.25" y="-680.23" font-family="Helvetica,sans-Serif" font-size="8.00">Back</text>
</g>
<!-- joever_mode -->
<g id="node18" class="node">
<title>joever_mode</title>
<ellipse fill="white" stroke="black" cx="871" cy="-586.89" rx="65.44" ry="19.2"/>
<text xml:space="preserve" text-anchor="middle" x="871" y="-583.76" font-family="Helvetica,sans-Serif" font-size="10.00">joever_mode</text>
</g>
<!-- mode_challenge&#45;&gt;joever_mode -->
<g id="edge60" class="edge">
<title>mode_challenge&#45;&gt;joever_mode</title>
<path fill="none" stroke="#444444" d="M648,-681.96C648,-681.96 762.03,-633.86 827,-606.45"/>
<polygon fill="#444444" stroke="#444444" points="827.78,-608.78 833.28,-603.8 825.88,-604.26 827.78,-608.78"/>
</g>
<!-- hitler_mode -->
<g id="node19" class="node">
<title>hitler_mode</title>
<ellipse fill="white" stroke="black" cx="170" cy="-586.89" rx="61.73" ry="19.2"/>
<text xml:space="preserve" text-anchor="middle" x="170" y="-583.76" font-family="Helvetica,sans-Serif" font-size="10.00">hitler_mode</text>
</g>
<!-- mode_challenge&#45;&gt;hitler_mode -->
<g id="edge61" class="edge">
<title>mode_challenge&#45;&gt;hitler_mode</title>
<path fill="none" stroke="#444444" d="M946.63,-764.45C849.98,-738.4 648,-683.96 648,-683.96"/>
<path fill="none" stroke="#444444" d="M648,-681.96C648,-681.96 357.37,-624.76 229.35,-599.57"/>
<polygon fill="#444444" stroke="#444444" points="229.98,-597.19 222.64,-598.25 229.03,-602 229.98,-597.19"/>
</g>
<!-- unemployed_mode -->
<g id="node20" class="node">
<title>unemployed_mode</title>
<ellipse fill="white" stroke="black" cx="404" cy="-586.89" rx="86.66" ry="19.2"/>
<text xml:space="preserve" text-anchor="middle" x="404" y="-583.76" font-family="Helvetica,sans-Serif" font-size="10.00">unemployed_mode</text>
</g>
<!-- mode_challenge&#45;&gt;unemployed_mode -->
<g id="edge62" class="edge">
<title>mode_challenge&#45;&gt;unemployed_mode</title>
<path fill="none" stroke="#444444" d="M648,-681.96C648,-681.96 524.85,-634.48 453.53,-606.98"/>
<polygon fill="#444444" stroke="#444444" points="454.77,-604.83 447.36,-604.6 453.01,-609.41 454.77,-604.83"/>
</g>
<!-- wacky_weimar -->
<g id="node21" class="node">
<title>wacky_weimar</title>
<ellipse fill="white" stroke="black" cx="648" cy="-586.89" rx="71.81" ry="19.2"/>
<text xml:space="preserve" text-anchor="middle" x="648" y="-583.76" font-family="Helvetica,sans-Serif" font-size="10.00">wacky_weimar</text>
</g>
<!-- mode_challenge&#45;&gt;wacky_weimar -->
<g id="edge63" class="edge">
<title>mode_challenge&#45;&gt;wacky_weimar</title>
<path fill="none" stroke="#444444" d="M648,-681.96C648,-681.96 648,-642.48 648,-614.67"/>
<polygon fill="#444444" stroke="#444444" points="650.45,-614.98 648,-607.98 645.55,-614.99 650.45,-614.98"/>
</g>
<!-- joever_mode&#45;&gt;mode_lite -->
<g id="edge65" class="edge">
<title>joever_mode&#45;&gt;mode_lite</title>
<path fill="none" stroke="#444444" d="M820.28,-574.44C709.15,-549.37 454,-491.81 454,-491.81"/>
</g>
<!-- hitler_mode&#45;&gt;mode_lite -->
<g id="edge66" class="edge">
<title>hitler_mode&#45;&gt;mode_lite</title>
<path fill="none" stroke="#444444" d="M211.3,-572.21C290.06,-546.12 454,-491.81 454,-491.81"/>
<path fill="none" stroke="#444444" d="M454,-489.81C454,-489.81 277.58,-440.27 180.79,-413.09"/>
<polygon fill="#444444" stroke="#444444" points="181.68,-410.8 174.28,-411.26 180.36,-415.51 181.68,-410.8"/>
</g>
<!-- unemployed_mode&#45;&gt;mode_lite -->
<g id="edge67" class="edge">
<title>unemployed_mode&#45;&gt;mode_lite</title>
<path fill="none" stroke="#444444" d="M413.64,-567.75C428.17,-540.41 454,-491.81 454,-491.81"/>
</g>
<!-- wacky_weimar&#45;&gt;mode_lite -->
<g id="edge68" class="edge">
<title>wacky_weimar&#45;&gt;mode_lite</title>
<path fill="none" stroke="#444444" d="M614.21,-569.5C558.63,-542.55 454,-491.81 454,-491.81"/>
</g>
<!-- modinfo_flavors&#45;&gt;start_menu_2 -->
<g id="edge18" class="edge">
<title>modinfo_flavors&#45;&gt;start_menu_2</title>
<path fill="none" stroke="#444444" d="M2042.42,-790.71C1920.54,-822.76 1557.52,-918.23 1416.71,-955.26"/>
<polygon fill="#444444" stroke="#444444" points="1416.17,-952.87 1410.02,-957.02 1417.42,-957.61 1416.17,-952.87"/>
<text xml:space="preserve" text-anchor="middle" x="1813.84" y="-872.38" font-family="Helvetica,sans-Serif" font-size="8.00">Back</text>
</g>
<!-- modinfo_flavors&#45;&gt;root_start -->
<g id="edge17" class="edge">
<title>modinfo_flavors&#45;&gt;root_start</title>
<path fill="none" stroke="#444444" d="M2039.18,-768.92C1889.23,-737.76 1396.63,-635.4 1226.45,-600.03"/>
<polygon fill="#444444" stroke="#444444" points="1227.18,-597.68 1219.83,-598.66 1226.18,-602.48 1227.18,-597.68"/>
<text xml:space="preserve" text-anchor="middle" x="1635.25" y="-680.23" font-family="Helvetica,sans-Serif" font-size="8.00">Start</text>
</g>
<!-- modinfo_flavors&#45;&gt;modinfo_infotext -->
<g id="edge11" class="edge">
<title>modinfo_flavors&#45;&gt;modinfo_infotext</title>
<path fill="none" stroke="#444444" d="M2101.32,-753.32C2128.44,-716.76 2178.94,-648.65 2205.92,-612.27"/>
<polygon fill="#444444" stroke="#444444" points="2099.37,-751.85 2097.17,-758.93 2103.3,-754.76 2099.37,-751.85"/>
<polygon fill="#444444" stroke="#444444" points="2207.56,-614.16 2209.77,-607.08 2203.63,-611.24 2207.56,-614.16"/>
</g>
<!-- modinfo_faq -->
<g id="node24" class="node">
<title>modinfo_faq</title>
<ellipse fill="white" stroke="black" cx="2403" cy="-586.89" rx="38.4" ry="19.2"/>
<text xml:space="preserve" text-anchor="middle" x="2403" y="-583.76" font-family="Helvetica,sans-Serif" font-size="10.00">@faq</text>
</g>
<!-- modinfo_flavors&#45;&gt;modinfo_faq -->
<g id="edge12" class="edge">
<title>modinfo_flavors&#45;&gt;modinfo_faq</title>
<path fill="none" stroke="#444444" d="M2116.62,-758.05C2179.03,-720.97 2311.93,-642 2372.17,-606.2"/>
<polygon fill="#444444" stroke="#444444" points="2115.53,-755.85 2110.76,-761.54 2118.03,-760.07 2115.53,-755.85"/>
<polygon fill="#444444" stroke="#444444" points="2373.08,-608.51 2377.85,-602.83 2370.58,-604.3 2373.08,-608.51"/>
</g>
<!-- modinfo_paths -->
<g id="node25" class="node">
<title>modinfo_paths</title>
<ellipse fill="white" stroke="black" cx="2574" cy="-586.89" rx="46.35" ry="19.2"/>
<text xml:space="preserve" text-anchor="middle" x="2574" y="-583.76" font-family="Helvetica,sans-Serif" font-size="10.00">@paths</text>
</g>
<!-- modinfo_flavors&#45;&gt;modinfo_paths -->
<g id="edge13" class="edge">
<title>modinfo_flavors&#45;&gt;modinfo_paths</title>
<path fill="none" stroke="#444444" d="M2117.53,-764.66C2205.55,-730.57 2438.07,-640.53 2532.88,-603.81"/>
<polygon fill="#444444" stroke="#444444" points="2533.76,-606.1 2539.4,-601.29 2531.99,-601.53 2533.76,-606.1"/>
</g>
<!-- modinfo_changelog -->
<g id="node26" class="node">
<title>modinfo_changelog</title>
<ellipse fill="white" stroke="black" cx="1933" cy="-586.89" rx="62.79" ry="19.2"/>
<text xml:space="preserve" text-anchor="middle" x="1933" y="-583.76" font-family="Helvetica,sans-Serif" font-size="10.00">@changelog</text>
</g>
<!-- modinfo_flavors&#45;&gt;modinfo_changelog -->
<g id="edge14" class="edge">
<title>modinfo_flavors&#45;&gt;modinfo_changelog</title>
<path fill="none" stroke="#444444" d="M2068.89,-760.14C2041.86,-725.88 1982.78,-650.98 1952.19,-612.22"/>
<polygon fill="#444444" stroke="#444444" points="1954.38,-611.03 1948.12,-607.05 1950.53,-614.07 1954.38,-611.03"/>
</g>
<!-- modinfo_discord -->
<g id="node27" class="node">
<title>modinfo_discord</title>
<ellipse fill="white" stroke="black" cx="2846" cy="-586.89" rx="52.18" ry="19.2"/>
<text xml:space="preserve" text-anchor="middle" x="2846" y="-583.76" font-family="Helvetica,sans-Serif" font-size="10.00">@discord</text>
</g>
<!-- modinfo_flavors&#45;&gt;modinfo_discord -->
<g id="edge15" class="edge">
<title>modinfo_flavors&#45;&gt;modinfo_discord</title>
<path fill="none" stroke="#444444" d="M2132.65,-765.66C2270.45,-731.32 2656.6,-635.09 2795.46,-600.48"/>
<polygon fill="#444444" stroke="#444444" points="2132.23,-763.24 2126.03,-767.31 2133.42,-767.99 2132.23,-763.24"/>
<polygon fill="#444444" stroke="#444444" points="2795.79,-602.92 2801.99,-598.85 2794.61,-598.17 2795.79,-602.92"/>
</g>
<!-- modinfo_source -->
<g id="node28" class="node">
<title>modinfo_source</title>
<ellipse fill="white" stroke="black" cx="1734" cy="-586.89" rx="50.06" ry="19.2"/>
<text xml:space="preserve" text-anchor="middle" x="1734" y="-583.76" font-family="Helvetica,sans-Serif" font-size="10.00">@source</text>
</g>
<!-- modinfo_flavors&#45;&gt;modinfo_source -->
<g id="edge16" class="edge">
<title>modinfo_flavors&#45;&gt;modinfo_source</title>
<path fill="none" stroke="#444444" d="M2047.47,-758.68C1980.5,-722.19 1836.31,-643.63 1769.42,-607.18"/>
<polygon fill="#444444" stroke="#444444" points="2046.09,-760.71 2053.41,-761.91 2048.43,-756.41 2046.09,-760.71"/>
<polygon fill="#444444" stroke="#444444" points="1770.69,-605.09 1763.37,-603.89 1768.35,-609.39 1770.69,-605.09"/>
</g>
<!-- ddp_paths -->
<g id="node29" class="node">
<title>ddp_paths</title>
<ellipse fill="white" stroke="black" cx="2900" cy="-394.74" rx="55.9" ry="19.2"/>
<text xml:space="preserve" text-anchor="middle" x="2900" y="-391.61" font-family="Helvetica,sans-Serif" font-size="10.00">ddp_paths</text>
</g>
<!-- modinfo_paths&#45;&gt;ddp_paths -->
<g id="edge23" class="edge">
<title>modinfo_paths&#45;&gt;ddp_paths</title>
<path fill="none" stroke="#444444" d="M2607.23,-566.5C2669.31,-530.3 2802.29,-452.73 2865.39,-415.92"/>
<polygon fill="#444444" stroke="#444444" points="2606.25,-564.24 2601.43,-569.88 2608.72,-568.47 2606.25,-564.24"/>
<polygon fill="#444444" stroke="#444444" points="2866.25,-418.26 2871.06,-412.62 2863.78,-414.03 2866.25,-418.26"/>
</g>
<!-- dvp_paths -->
<g id="node30" class="node">
<title>dvp_paths</title>
<ellipse fill="white" stroke="black" cx="3098" cy="-394.74" rx="55.9" ry="19.2"/>
<text xml:space="preserve" text-anchor="middle" x="3098" y="-391.61" font-family="Helvetica,sans-Serif" font-size="10.00">dvp_paths</text>
</g>
<!-- modinfo_paths&#45;&gt;dvp_paths -->
<g id="edge24" class="edge">
<title>modinfo_paths&#45;&gt;dvp_paths</title>
<path fill="none" stroke="#444444" d="M2615.73,-570.74C2712.69,-535.56 2952.52,-448.53 3052.79,-412.14"/>
<polygon fill="#444444" stroke="#444444" points="2615.14,-568.35 2609.4,-573.04 2616.82,-572.96 2615.14,-568.35"/>
<polygon fill="#444444" stroke="#444444" points="3053.46,-414.51 3059.21,-409.82 3051.79,-409.9 3053.46,-414.51"/>
</g>
<!-- lvp_paths -->
<g id="node31" class="node">
<title>lvp_paths</title>
<ellipse fill="white" stroke="black" cx="1906" cy="-394.74" rx="53.78" ry="19.2"/>
<text xml:space="preserve" text-anchor="middle" x="1906" y="-391.61" font-family="Helvetica,sans-Serif" font-size="10.00">lvp_paths</text>
</g>
<!-- modinfo_paths&#45;&gt;lvp_paths -->
<g id="edge25" class="edge">
<title>modinfo_paths&#45;&gt;lvp_paths</title>
<path fill="none" stroke="#444444" d="M2528.5,-572.93C2407.77,-538.57 2080.07,-445.29 1955.22,-409.75"/>
<polygon fill="#444444" stroke="#444444" points="2527.8,-575.28 2535.2,-574.84 2529.14,-570.57 2527.8,-575.28"/>
<polygon fill="#444444" stroke="#444444" points="1956.15,-407.47 1948.75,-407.91 1954.81,-412.18 1956.15,-407.47"/>
</g>
<!-- zentrum_paths -->
<g id="node32" class="node">
<title>zentrum_paths</title>
<ellipse fill="white" stroke="black" cx="2118" cy="-394.74" rx="71.81" ry="19.2"/>
<text xml:space="preserve" text-anchor="middle" x="2118" y="-391.61" font-family="Helvetica,sans-Serif" font-size="10.00">zentrum_paths</text>
</g>
<!-- modinfo_paths&#45;&gt;zentrum_paths -->
<g id="edge26" class="edge">
<title>modinfo_paths&#45;&gt;zentrum_paths</title>
<path fill="none" stroke="#444444" d="M2534.52,-569.42C2450.22,-534.27 2253.04,-452.05 2163.58,-414.75"/>
<polygon fill="#444444" stroke="#444444" points="2533.5,-571.65 2540.9,-572.08 2535.38,-567.13 2533.5,-571.65"/>
<polygon fill="#444444" stroke="#444444" points="2164.58,-412.51 2157.18,-412.08 2162.7,-417.03 2164.58,-412.51"/>
</g>
<!-- dnvp_paths -->
<g id="node33" class="node">
<title>dnvp_paths</title>
<ellipse fill="white" stroke="black" cx="2336" cy="-394.74" rx="60.14" ry="19.2"/>
<text xml:space="preserve" text-anchor="middle" x="2336" y="-391.61" font-family="Helvetica,sans-Serif" font-size="10.00">dnvp_paths</text>
</g>
<!-- modinfo_paths&#45;&gt;dnvp_paths -->
<g id="edge27" class="edge">
<title>modinfo_paths&#45;&gt;dnvp_paths</title>
<path fill="none" stroke="#444444" d="M2546.9,-564.24C2501.39,-527.88 2410.06,-454.91 2363.97,-418.09"/>
<polygon fill="#444444" stroke="#444444" points="2545.11,-565.94 2552.11,-568.4 2548.17,-562.12 2545.11,-565.94"/>
<polygon fill="#444444" stroke="#444444" points="2365.69,-416.33 2358.69,-413.87 2362.63,-420.15 2365.69,-416.33"/>
</g>
<!-- full_paths -->
<g id="node34" class="node">
<title>full_paths</title>
<ellipse fill="white" stroke="black" cx="2536" cy="-394.74" rx="54.31" ry="19.2"/>
<text xml:space="preserve" text-anchor="middle" x="2536" y="-391.61" font-family="Helvetica,sans-Serif" font-size="10.00">full_paths</text>
</g>
<!-- modinfo_paths&#45;&gt;full_paths -->
<g id="edge28" class="edge">
<title>modinfo_paths&#45;&gt;full_paths</title>
<path fill="none" stroke="#444444" d="M2568.63,-559C2561.37,-522.68 2548.51,-458.34 2541.29,-422.23"/>
<polygon fill="#444444" stroke="#444444" points="2566.22,-559.44 2569.99,-565.82 2571.02,-558.48 2566.22,-559.44"/>
<polygon fill="#444444" stroke="#444444" points="2543.74,-421.98 2539.97,-415.6 2538.94,-422.94 2543.74,-421.98"/>
</g>
<!-- modinfo_back -->
<g id="node35" class="node">
<title>modinfo_back</title>
<ellipse fill="white" stroke="black" cx="3277" cy="-394.74" rx="36.8" ry="19.2"/>
<text xml:space="preserve" text-anchor="middle" x="3277" y="-391.61" font-family="Helvetica,sans-Serif" font-size="10.00">back</text>
</g>
<!-- modinfo_paths&#45;&gt;modinfo_back -->
<g id="edge29" class="edge">
<title>modinfo_paths&#45;&gt;modinfo_back</title>
<path fill="none" stroke="#444444" d="M2612.05,-575.6C2733.6,-542.72 3111.92,-440.39 3236.65,-406.65"/>
<polygon fill="#444444" stroke="#444444" points="3237.26,-409.03 3243.38,-404.83 3235.98,-404.3 3237.26,-409.03"/>
</g>
<!-- modinfo_back2 -->
<g id="node36" class="node">
<title>modinfo_back2</title>
<ellipse fill="white" stroke="black" cx="2717" cy="-394.74" rx="41.05" ry="19.2"/>
<text xml:space="preserve" text-anchor="middle" x="2717" y="-391.61" font-family="Helvetica,sans-Serif" font-size="10.00">back2</text>
</g>
<!-- modinfo_paths&#45;&gt;modinfo_back2 -->
<g id="edge30" class="edge">
<title>modinfo_paths&#45;&gt;modinfo_back2</title>
<path fill="none" stroke="#444444" d="M2587.2,-568.34C2612.95,-534.1 2669.92,-458.34 2699.07,-419.58"/>
<polygon fill="#444444" stroke="#444444" points="2700.68,-421.52 2702.93,-414.45 2696.76,-418.58 2700.68,-421.52"/>
</g>
<!-- modinfo_back3 -->
<g id="node37" class="node">
<title>modinfo_back3</title>
<ellipse fill="white" stroke="black" cx="1725" cy="-394.74" rx="41.05" ry="19.2"/>
<text xml:space="preserve" text-anchor="middle" x="1725" y="-391.61" font-family="Helvetica,sans-Serif" font-size="10.00">back3</text>
</g>
<!-- modinfo_changelog&#45;&gt;modinfo_back3 -->
<g id="edge38" class="edge">
<title>modinfo_changelog&#45;&gt;modinfo_back3</title>
<path fill="none" stroke="#444444" d="M1913.8,-568.34C1875.83,-533.62 1791.17,-456.23 1749.34,-417.99"/>
<polygon fill="#444444" stroke="#444444" points="1751.19,-416.36 1744.37,-413.45 1747.88,-419.98 1751.19,-416.36"/>
</g>
<!-- modinfo_back&#45;&gt;modinfo_flavors -->
<g id="edge37" class="edge">
<title>modinfo_back&#45;&gt;modinfo_flavors</title>
<path fill="none" stroke="#444444" d="M3245.15,-404.99C3080.54,-457.97 2326.34,-700.71 2129.89,-763.94"/>
<polygon fill="#444444" stroke="#444444" points="2129.4,-761.52 2123.49,-766 2130.9,-766.19 2129.4,-761.52"/>
</g>
<!-- modinfo_back3&#45;&gt;modinfo_flavors -->
<g id="edge39" class="edge">
<title>modinfo_back3&#45;&gt;modinfo_flavors</title>
<path fill="none" stroke="#444444" d="M1741.68,-412.64C1799.75,-474.98 1993.18,-682.61 2060.03,-754.38"/>
<polygon fill="#444444" stroke="#444444" points="2058.14,-755.94 2064.7,-759.39 2061.72,-752.6 2058.14,-755.94"/>
</g>
<!-- credits_menu&#45;&gt;start_menu_2 -->
<g id="edge44" class="edge">
<title>credits_menu&#45;&gt;start_menu_2</title>
<path fill="none" stroke="#444444" d="M3478.17,-784.32C3195.59,-809.11 1770.78,-934.13 1432.24,-963.84"/>
<polygon fill="#444444" stroke="#444444" points="1432.24,-961.38 1425.48,-964.43 1432.67,-966.26 1432.24,-961.38"/>
<text xml:space="preserve" text-anchor="middle" x="3162.11" y="-872.38" font-family="Helvetica,sans-Serif" font-size="8.00">Back</text>
</g>
<!-- credits_books -->
<g id="node39" class="node">
<title>credits_books</title>
<ellipse fill="white" stroke="black" cx="4092" cy="-586.89" rx="68.09" ry="19.2"/>
<text xml:space="preserve" text-anchor="middle" x="4092" y="-583.76" font-family="Helvetica,sans-Serif" font-size="10.00">credits_books</text>
</g>
<!-- credits_menu&#45;&gt;credits_books -->
<g id="edge40" class="edge">
<title>credits_menu&#45;&gt;credits_books</title>
<path fill="none" stroke="#444444" d="M3572.08,-762.86C3676.13,-727.84 3932.5,-641.57 4041.57,-604.86"/>
<polygon fill="#444444" stroke="#444444" points="3571.36,-760.52 3565.51,-765.07 3572.92,-765.16 3571.36,-760.52"/>
<polygon fill="#444444" stroke="#444444" points="4042.19,-607.23 4048.04,-602.68 4040.62,-602.59 4042.19,-607.23"/>
</g>
<!-- credits_articles -->
<g id="node40" class="node">
<title>credits_articles</title>
<ellipse fill="white" stroke="black" cx="3411" cy="-586.89" rx="72.87" ry="19.2"/>
<text xml:space="preserve" text-anchor="middle" x="3411" y="-583.76" font-family="Helvetica,sans-Serif" font-size="10.00">credits_articles</text>
</g>
<!-- credits_menu&#45;&gt;credits_articles -->
<g id="edge41" class="edge">
<title>credits_menu&#45;&gt;credits_articles</title>
<path fill="none" stroke="#444444" d="M3511.94,-753.34C3489.79,-717.03 3448.64,-649.59 3426.34,-613.03"/>
<polygon fill="#444444" stroke="#444444" points="3509.56,-754.15 3515.3,-758.85 3513.74,-751.6 3509.56,-754.15"/>
<polygon fill="#444444" stroke="#444444" points="3428.66,-612.14 3422.93,-607.44 3424.48,-614.69 3428.66,-612.14"/>
</g>
<!-- credits_images -->
<g id="node41" class="node">
<title>credits_images</title>
<ellipse fill="white" stroke="black" cx="3643" cy="-586.89" rx="72.87" ry="19.2"/>
<text xml:space="preserve" text-anchor="middle" x="3643" y="-583.76" font-family="Helvetica,sans-Serif" font-size="10.00">credits_images</text>
</g>
<!-- credits_menu&#45;&gt;credits_images -->
<g id="edge42" class="edge">
<title>credits_menu&#45;&gt;credits_images</title>
<path fill="none" stroke="#444444" d="M3542.06,-753.34C3564.21,-717.03 3605.36,-649.59 3627.66,-613.03"/>
<polygon fill="#444444" stroke="#444444" points="3540.26,-751.6 3538.7,-758.85 3544.44,-754.15 3540.26,-751.6"/>
<polygon fill="#444444" stroke="#444444" points="3629.52,-614.69 3631.07,-607.44 3625.34,-612.14 3629.52,-614.69"/>
</g>
<!-- credits_music -->
<g id="node42" class="node">
<title>credits_music</title>
<ellipse fill="white" stroke="black" cx="3870" cy="-586.89" rx="68.09" ry="19.2"/>
<text xml:space="preserve" text-anchor="middle" x="3870" y="-583.76" font-family="Helvetica,sans-Serif" font-size="10.00">credits_music</text>
</g>
<!-- credits_menu&#45;&gt;credits_music -->
<g id="edge43" class="edge">
<title>credits_menu&#45;&gt;credits_music</title>
<path fill="none" stroke="#444444" d="M3561.82,-758.73C3626.76,-722.73 3765.79,-645.66 3832.62,-608.61"/>
<polygon fill="#444444" stroke="#444444" points="3561.04,-756.36 3556.1,-761.9 3563.41,-760.65 3561.04,-756.36"/>
<polygon fill="#444444" stroke="#444444" points="3833.76,-610.78 3838.69,-605.24 3831.38,-606.49 3833.76,-610.78"/>
</g>
</g>
</svg>
